<?xml version="1.0" encoding="UTF-8" standalone="no"?>
<!DOCTYPE svg PUBLIC "-//W3C//DTD SVG 20010904//EN"
              "http://www.w3.org/TR/2001/REC-SVG-20010904/DTD/svg10.dtd">

<svg xmlns="http://www.w3.org/2000/svg"
     width="7.89in" height="7.89in"
     viewBox="0 0 2367 2367">
  <defs>
    <filter id="innershadow" x0="-50%" y0="-50%" width="200%" height="200%">
      <feGaussianBlur in="SourceAlpha" stdDeviation="3" result="blur"></feGaussianBlur>
      <feOffset dy="4" dx="6"></feOffset>
      <feComposite in2="SourceAlpha" operator="arithmetic" k2="-1" k3="1" result="shadowDiff"></feComposite>

      <feFlood flood-color="#444444" flood-opacity="0.75"></feFlood>
      <feComposite in2="shadowDiff" operator="in"></feComposite>
      <feComposite in2="SourceGraphic" operator="over" result="firstfilter"></feComposite>


      <feGaussianBlur in="firstfilter" stdDeviation="3" result="blur2"></feGaussianBlur>
      <feOffset dy="-4" dx="-6"></feOffset>
      <feComposite in2="firstfilter" operator="arithmetic" k2="-1" k3="1" result="shadowDiff"></feComposite>

      <feFlood flood-color="#444444" flood-opacity="0.75"></feFlood>
      <feComposite in2="shadowDiff" operator="in"></feComposite>
      <feComposite in2="firstfilter" operator="over"></feComposite>
    </filter>
  </defs>
  <path id="Auswahl"
        fill="white" stroke="none" stroke-width="1" filter="url(#innershadow)"
        d="M 1167.00,2.00
           C 1167.00,2.00 1213.00,2.00 1213.00,2.00
             1223.16,2.02 1221.09,3.87 1229.00,4.00
             1229.00,4.00 1260.00,5.00 1260.00,5.00
             1260.00,5.00 1275.00,6.00 1275.00,6.00
             1288.65,6.02 1296.84,7.71 1310.00,9.86
             1310.00,9.86 1334.00,13.19 1334.00,13.19
             1334.00,13.19 1341.00,14.81 1341.00,14.81
             1341.00,14.81 1357.00,16.21 1357.00,16.21
             1357.00,16.21 1364.00,17.81 1364.00,17.81
             1364.00,17.81 1383.00,20.57 1383.00,20.57
             1383.00,20.57 1397.00,22.31 1397.00,22.31
             1397.00,22.31 1422.00,28.53 1422.00,28.53
             1422.00,28.53 1448.00,35.11 1448.00,35.11
             1448.00,35.11 1459.00,37.38 1459.00,37.38
             1459.00,37.38 1478.00,42.63 1478.00,42.63
             1478.00,42.63 1533.00,57.03 1533.00,57.03
             1533.00,57.03 1553.00,64.82 1553.00,64.82
             1553.00,64.82 1560.00,66.94 1560.00,66.94
             1560.00,66.94 1575.00,72.92 1575.00,72.92
             1575.00,72.92 1593.00,79.05 1593.00,79.05
             1593.00,79.05 1606.00,84.31 1606.00,84.31
             1606.00,84.31 1621.00,89.42 1621.00,89.42
             1621.00,89.42 1656.00,105.89 1656.00,105.89
             1656.00,105.89 1680.00,116.97 1680.00,116.97
             1680.00,116.97 1693.00,123.74 1693.00,123.74
             1693.00,123.74 1702.00,127.40 1702.00,127.40
             1702.00,127.40 1715.00,134.20 1715.00,134.20
             1715.00,134.20 1740.00,146.71 1740.00,146.71
             1740.00,146.71 1784.00,173.69 1784.00,173.69
             1784.00,173.69 1815.00,192.77 1815.00,192.77
             1815.00,192.77 1837.91,207.27 1837.91,207.27
             1837.91,207.27 1860.00,224.12 1860.00,224.12
             1860.00,224.12 1883.00,241.35 1883.00,241.35
             1883.00,241.35 1928.96,276.46 1928.96,276.46
             1928.96,276.46 1936.09,283.68 1936.09,283.68
             1936.09,283.68 1943.00,289.18 1943.00,289.18
             1943.00,289.18 1968.00,312.91 1968.00,312.91
             1968.00,312.91 1990.41,333.23 1990.41,333.23
             1990.41,333.23 1999.89,342.56 1999.89,342.56
             1999.89,342.56 2007.91,349.10 2007.91,349.10
             2007.91,349.10 2030.19,373.96 2030.19,373.96
             2030.19,373.96 2048.20,393.83 2048.20,393.83
             2048.20,393.83 2076.56,425.00 2076.56,425.00
             2076.56,425.00 2094.87,449.00 2094.87,449.00
             2094.87,449.00 2123.15,487.00 2123.15,487.00
             2123.15,487.00 2146.25,518.00 2146.25,518.00
             2146.25,518.00 2174.54,564.72 2174.54,564.72
             2174.54,564.72 2202.66,611.00 2202.66,611.00
             2202.66,611.00 2208.21,620.00 2208.21,620.00
             2208.21,620.00 2233.49,673.00 2233.49,673.00
             2233.49,673.00 2239.33,684.00 2239.33,684.00
             2239.33,684.00 2242.98,693.00 2242.98,693.00
             2242.98,693.00 2254.55,717.00 2254.55,717.00
             2254.55,717.00 2274.37,772.00 2274.37,772.00
             2274.37,772.00 2297.43,836.00 2297.43,836.00
             2297.43,836.00 2301.59,853.00 2301.59,853.00
             2301.59,853.00 2313.87,900.00 2313.87,900.00
             2313.87,900.00 2324.72,942.00 2324.72,942.00
             2324.72,942.00 2328.28,967.00 2328.28,967.00
             2328.28,967.00 2330.82,981.00 2330.82,981.00
             2330.82,981.00 2331.32,989.00 2331.32,989.00
             2331.32,989.00 2332.86,996.00 2332.86,996.00
             2332.86,996.00 2337.14,1027.00 2337.14,1027.00
             2337.14,1027.00 2338.86,1035.00 2338.86,1035.00
             2341.18,1049.23 2342.84,1063.60 2343.00,1078.00
             2343.00,1078.00 2344.00,1092.00 2344.00,1092.00
             2344.00,1092.00 2345.00,1122.00 2345.00,1122.00
             2345.09,1129.28 2346.19,1128.73 2346.91,1134.00
             2346.91,1134.00 2346.91,1148.00 2346.91,1148.00
             2346.91,1148.00 2348.00,1162.00 2348.00,1162.00
             2348.00,1162.00 2348.00,1196.00 2348.00,1196.00
             2348.00,1196.00 2347.04,1206.00 2347.04,1206.00
             2347.04,1206.00 2347.04,1218.00 2347.04,1218.00
             2346.95,1228.12 2345.02,1224.64 2345.00,1236.00
             2345.00,1236.00 2344.00,1258.00 2344.00,1258.00
             2344.00,1258.00 2343.00,1287.00 2343.00,1287.00
             2343.00,1287.00 2338.81,1322.00 2338.81,1322.00
             2338.81,1322.00 2337.19,1329.00 2337.19,1329.00
             2337.19,1329.00 2332.86,1361.00 2332.86,1361.00
             2332.86,1361.00 2331.32,1368.00 2331.32,1368.00
             2331.32,1368.00 2330.82,1376.00 2330.82,1376.00
             2330.82,1376.00 2328.28,1390.00 2328.28,1390.00
             2328.28,1390.00 2324.88,1414.00 2324.88,1414.00
             2324.88,1414.00 2312.87,1461.00 2312.87,1461.00
             2312.87,1461.00 2301.74,1503.00 2301.74,1503.00
             2301.74,1503.00 2296.66,1523.00 2296.66,1523.00
             2296.66,1523.00 2272.43,1590.00 2272.43,1590.00
             2272.43,1590.00 2253.55,1642.00 2253.55,1642.00
             2253.55,1642.00 2244.27,1661.00 2244.27,1661.00
             2244.27,1661.00 2239.68,1672.00 2239.68,1672.00
             2239.68,1672.00 2234.31,1682.00 2234.31,1682.00
             2234.31,1682.00 2229.66,1693.00 2229.66,1693.00
             2229.66,1693.00 2221.63,1709.00 2221.63,1709.00
             2221.63,1709.00 2208.68,1736.00 2208.68,1736.00
             2208.68,1736.00 2182.45,1779.00 2182.45,1779.00
             2182.45,1779.00 2163.09,1811.00 2163.09,1811.00
             2163.09,1811.00 2146.26,1839.00 2146.26,1839.00
             2146.26,1839.00 2115.58,1880.00 2115.58,1880.00
             2115.58,1880.00 2085.45,1920.00 2085.45,1920.00
             2085.45,1920.00 2076.56,1932.00 2076.56,1932.00
             2076.56,1932.00 2050.75,1960.09 2050.75,1960.09
             2050.75,1960.09 2022.17,1992.00 2022.17,1992.00
             2022.17,1992.00 2009.72,2005.71 2009.72,2005.71
             2009.72,2005.71 2000.66,2013.85 2000.66,2013.85
             2000.66,2013.85 1969.00,2043.09 1969.00,2043.09
             1969.00,2043.09 1959.00,2052.90 1959.00,2052.90
             1959.00,2052.90 1952.28,2058.37 1952.28,2058.37
             1952.28,2058.37 1945.99,2064.83 1945.99,2064.83
             1945.99,2064.83 1936.09,2073.25 1936.09,2073.25
             1936.09,2073.25 1925.99,2082.92 1925.99,2082.92
             1925.99,2082.92 1864.00,2129.70 1864.00,2129.70
             1864.00,2129.70 1830.00,2155.17 1830.00,2155.17
             1830.00,2155.17 1790.00,2179.68 1790.00,2179.68
             1790.00,2179.68 1733.00,2214.00 1733.00,2214.00
             1733.00,2214.00 1695.00,2232.32 1695.00,2232.32
             1695.00,2232.32 1663.00,2247.62 1663.00,2247.62
             1663.00,2247.62 1648.00,2255.22 1648.00,2255.22
             1648.00,2255.22 1634.00,2261.48 1634.00,2261.48
             1634.00,2261.48 1626.00,2265.64 1626.00,2265.64
             1626.00,2265.64 1618.00,2268.32 1618.00,2268.32
             1618.00,2268.32 1585.00,2280.37 1585.00,2280.37
             1585.00,2280.37 1519.00,2304.26 1519.00,2304.26
             1519.00,2304.26 1501.00,2308.47 1501.00,2308.47
             1501.00,2308.47 1476.00,2315.11 1476.00,2315.11
             1476.00,2315.11 1461.00,2318.37 1461.00,2318.37
             1461.00,2318.37 1431.00,2326.40 1431.00,2326.40
             1431.00,2326.40 1424.00,2327.60 1424.00,2327.60
             1424.00,2327.60 1397.00,2334.69 1397.00,2334.69
             1397.00,2334.69 1353.00,2340.43 1353.00,2340.43
             1353.00,2340.43 1342.00,2342.81 1342.00,2342.81
             1342.00,2342.81 1301.00,2348.15 1301.00,2348.15
             1301.00,2348.15 1280.00,2351.00 1280.00,2351.00
             1280.00,2351.00 1274.00,2351.00 1274.00,2351.00
             1274.00,2351.00 1261.00,2352.00 1261.00,2352.00
             1261.00,2352.00 1230.00,2353.00 1230.00,2353.00
             1230.00,2353.00 1219.00,2353.96 1219.00,2353.96
             1219.00,2353.96 1208.00,2353.96 1208.00,2353.96
             1208.00,2353.96 1193.00,2355.00 1193.00,2355.00
             1193.00,2355.00 1155.00,2355.00 1155.00,2355.00
             1155.00,2355.00 1145.00,2354.04 1145.00,2354.04
             1145.00,2354.04 1134.00,2354.04 1134.00,2354.04
             1134.00,2354.04 1119.00,2353.00 1119.00,2353.00
             1119.00,2353.00 1096.00,2352.00 1096.00,2352.00
             1096.00,2352.00 1067.00,2351.00 1067.00,2351.00
             1067.00,2351.00 1043.00,2347.42 1043.00,2347.42
             1043.00,2347.42 1009.00,2342.86 1009.00,2342.86
             1009.00,2342.86 988.00,2339.27 988.00,2339.27
             988.00,2339.27 942.00,2332.47 942.00,2332.47
             942.00,2332.47 925.00,2327.59 925.00,2327.59
             925.00,2327.59 903.00,2322.53 903.00,2322.53
             903.00,2322.53 886.00,2317.88 886.00,2317.88
             886.00,2317.88 848.00,2308.47 848.00,2308.47
             848.00,2308.47 831.00,2304.49 831.00,2304.49
             831.00,2304.49 813.00,2297.86 813.00,2297.86
             813.00,2297.86 801.00,2293.91 801.00,2293.91
             801.00,2293.91 787.00,2288.32 787.00,2288.32
             787.00,2288.32 778.00,2285.54 778.00,2285.54
             778.00,2285.54 766.00,2280.59 766.00,2280.59
             766.00,2280.59 732.00,2268.24 732.00,2268.24
             732.00,2268.24 722.00,2265.12 722.00,2265.12
             722.00,2265.12 710.00,2258.89 710.00,2258.89
             710.00,2258.89 701.00,2254.73 701.00,2254.73
             701.00,2254.73 688.00,2247.95 688.00,2247.95
             688.00,2247.95 630.00,2220.25 630.00,2220.25
             630.00,2220.25 615.00,2213.36 615.00,2213.36
             615.00,2213.36 576.00,2189.34 576.00,2189.34
             576.00,2189.34 528.00,2159.76 528.00,2159.76
             528.00,2159.76 519.00,2154.38 519.00,2154.38
             519.00,2154.38 474.99,2121.42 474.99,2121.42
             474.99,2121.42 447.00,2100.59 447.00,2100.59
             447.00,2100.59 426.00,2084.72 426.00,2084.72
             426.00,2084.72 414.83,2074.08 414.83,2074.08
             414.83,2074.08 404.04,2064.83 404.04,2064.83
             404.04,2064.83 397.83,2058.37 397.83,2058.37
             397.83,2058.37 392.17,2053.81 392.17,2053.81
             392.17,2053.81 366.00,2029.18 366.00,2029.18
             366.00,2029.18 345.01,2009.99 345.01,2009.99
             345.01,2009.99 328.83,1992.00 328.83,1992.00
             328.83,1992.00 299.04,1959.51 299.04,1959.51
             299.04,1959.51 280.41,1939.17 280.41,1939.17
             280.41,1939.17 273.32,1931.99 273.32,1931.99
             273.32,1931.99 264.53,1920.00 264.53,1920.00
             264.53,1920.00 247.97,1898.00 247.97,1898.00
             247.97,1898.00 226.53,1869.00 226.53,1869.00
             226.53,1869.00 203.04,1838.00 203.04,1838.00
             203.04,1838.00 188.29,1813.00 188.29,1813.00
             188.29,1813.00 181.74,1803.00 181.74,1803.00
             181.74,1803.00 167.55,1779.00 167.55,1779.00
             167.55,1779.00 148.54,1748.00 148.54,1748.00
             148.54,1748.00 142.25,1738.00 142.25,1738.00
             142.25,1738.00 130.95,1715.00 130.95,1715.00
             130.95,1715.00 127.74,1707.00 127.74,1707.00
             127.74,1707.00 121.37,1695.00 121.37,1695.00
             121.37,1695.00 116.74,1684.00 116.74,1684.00
             116.74,1684.00 95.87,1641.00 95.87,1641.00
             95.87,1641.00 88.57,1620.00 88.57,1620.00
             88.57,1620.00 69.50,1568.00 69.50,1568.00
             69.50,1568.00 53.75,1525.00 53.75,1525.00
             53.75,1525.00 48.76,1504.00 48.76,1504.00
             48.76,1504.00 45.64,1494.00 45.64,1494.00
             45.64,1494.00 39.42,1469.00 39.42,1469.00
             39.42,1469.00 32.29,1444.00 32.29,1444.00
             32.29,1444.00 29.26,1430.00 29.26,1430.00
             29.26,1430.00 25.29,1416.00 25.29,1416.00
             25.29,1416.00 18.69,1368.00 18.69,1368.00
             18.69,1368.00 12.81,1329.00 12.81,1329.00
             10.75,1316.38 7.15,1300.65 7.00,1288.00
             7.00,1288.00 6.00,1258.00 6.00,1258.00
             6.00,1258.00 5.00,1236.00 5.00,1236.00
             4.98,1224.64 3.05,1228.12 3.00,1218.00
             3.00,1218.00 2.00,1190.00 2.00,1190.00
             2.00,1190.00 0.47,1177.25 0.47,1177.25
             1.22,1173.02 1.95,1175.33 2.00,1168.00
             2.00,1168.00 2.00,1161.00 2.00,1161.00
             2.00,1161.00 2.96,1151.00 2.96,1151.00
             2.96,1151.00 2.96,1138.00 2.96,1138.00
             3.11,1129.31 4.98,1130.92 5.00,1120.00
             5.00,1120.00 6.00,1099.00 6.00,1099.00
             6.00,1099.00 7.00,1070.00 7.00,1070.00
             7.13,1059.37 10.66,1038.89 12.69,1028.00
             12.69,1028.00 16.42,1001.00 16.42,1001.00
             16.42,1001.00 19.58,983.00 19.58,983.00
             19.58,983.00 25.36,940.00 25.36,940.00
             25.36,940.00 28.37,930.00 28.37,930.00
             28.37,930.00 32.64,912.00 32.64,912.00
             32.64,912.00 39.42,888.00 39.42,888.00
             39.42,888.00 41.29,879.00 41.29,879.00
             41.29,879.00 48.96,852.00 48.96,852.00
             48.96,852.00 53.04,834.00 53.04,834.00
             53.04,834.00 63.56,805.00 63.56,805.00
             63.56,805.00 77.58,767.00 77.58,767.00
             77.58,767.00 95.31,717.00 95.31,717.00
             95.31,717.00 102.06,703.00 102.06,703.00
             102.06,703.00 116.63,673.00 116.63,673.00
             116.63,673.00 120.89,663.00 120.89,663.00
             120.89,663.00 127.11,651.00 127.11,651.00
             127.11,651.00 142.13,619.00 142.13,619.00
             142.13,619.00 148.54,609.00 148.54,609.00
             148.54,609.00 166.80,579.00 166.80,579.00
             166.80,579.00 188.24,544.00 188.24,544.00
             188.24,544.00 202.90,519.00 202.90,519.00
             202.90,519.00 214.35,504.00 214.35,504.00
             214.35,504.00 235.26,476.00 235.26,476.00
             235.26,476.00 259.72,443.00 259.72,443.00
             259.72,443.00 272.33,426.17 272.33,426.17
             272.33,426.17 282.83,415.00 282.83,415.00
             282.83,415.00 316.91,378.00 316.91,378.00
             316.91,378.00 334.15,358.51 334.15,358.51
             334.15,358.51 339.86,352.91 339.86,352.91
             339.86,352.91 345.31,346.52 345.31,346.52
             345.31,346.52 351.74,340.96 351.74,340.96
             351.74,340.96 382.00,312.91 382.00,312.91
             382.00,312.91 406.09,290.17 406.09,290.17
             406.09,290.17 414.00,283.82 414.00,283.82
             414.00,283.82 431.28,267.78 431.28,267.78
             431.28,267.78 475.96,234.80 475.96,234.80
             475.96,234.80 521.00,201.19 521.00,201.19
             521.00,201.19 533.00,193.94 533.00,193.94
             533.00,193.94 561.00,176.58 561.00,176.58
             561.00,176.58 612.00,145.33 612.00,145.33
             612.00,145.33 657.00,123.74 657.00,123.74
             657.00,123.74 672.00,116.12 672.00,116.12
             672.00,116.12 695.00,105.40 695.00,105.40
             695.00,105.40 720.00,92.87 720.00,92.87
             720.00,92.87 744.00,84.31 744.00,84.31
             744.00,84.31 775.00,72.92 775.00,72.92
             775.00,72.92 831.00,52.51 831.00,52.51
             831.00,52.51 879.00,40.62 879.00,40.62
             879.00,40.62 891.00,37.13 891.00,37.13
             891.00,37.13 913.00,32.12 913.00,32.12
             913.00,32.12 953.00,22.37 953.00,22.37
             953.00,22.37 967.00,20.57 967.00,20.57
             967.00,20.57 986.00,17.81 986.00,17.81
             986.00,17.81 993.00,16.21 993.00,16.21
             993.00,16.21 1009.00,14.83 1009.00,14.83
             1009.00,14.83 1028.00,11.43 1028.00,11.43
             1028.00,11.43 1041.00,9.69 1041.00,9.69
             1050.01,8.01 1058.76,6.04 1068.00,6.00
             1068.00,6.00 1077.00,6.00 1077.00,6.00
             1077.00,6.00 1087.00,5.04 1087.00,5.04
             1087.00,5.04 1098.00,5.04 1098.00,5.04
             1098.00,5.04 1113.00,4.00 1113.00,4.00
             1119.40,3.99 1122.69,4.51 1129.00,2.71
             1129.00,2.71 1167.00,2.00 1167.00,2.00 Z
           M 2205.00,1181.00
           C 2205.00,1181.00 2205.00,1165.00 2205.00,1165.00
             2205.00,1165.00 2204.04,1154.00 2204.04,1154.00
             2204.04,1154.00 2204.04,1143.00 2204.04,1143.00
             2204.04,1143.00 2203.00,1127.00 2203.00,1127.00
             2203.00,1127.00 2202.00,1105.00 2202.00,1105.00
             2202.00,1105.00 2201.00,1075.00 2201.00,1075.00
             2200.90,1066.75 2199.10,1061.67 2197.76,1054.00
             2197.76,1054.00 2193.86,1027.00 2193.86,1027.00
             2193.86,1027.00 2191.28,1014.00 2191.28,1014.00
             2191.28,1014.00 2185.72,975.00 2185.72,975.00
             2185.72,975.00 2182.47,963.00 2182.47,963.00
             2182.47,963.00 2178.63,946.00 2178.63,946.00
             2178.63,946.00 2171.59,920.00 2171.59,920.00
             2171.59,920.00 2169.71,910.00 2169.71,910.00
             2169.71,910.00 2162.37,883.00 2162.37,883.00
             2162.37,883.00 2158.96,868.00 2158.96,868.00
             2158.96,868.00 2155.54,859.00 2155.54,859.00
             2155.54,859.00 2141.94,822.00 2141.94,822.00
             2141.94,822.00 2132.09,795.00 2132.09,795.00
             2132.09,795.00 2126.13,778.00 2126.13,778.00
             2126.13,778.00 2116.26,758.00 2116.26,758.00
             2116.26,758.00 2104.26,733.00 2104.26,733.00
             2104.26,733.00 2100.10,723.00 2100.10,723.00
             2100.10,723.00 2093.27,710.00 2093.27,710.00
             2093.27,710.00 2089.65,701.00 2089.65,701.00
             2089.65,701.00 2084.78,692.00 2084.78,692.00
             2084.78,692.00 2078.82,680.00 2078.82,680.00
             2078.82,680.00 2052.58,637.00 2052.58,637.00
             2052.58,637.00 2043.34,622.00 2043.34,622.00
             2043.34,622.00 2030.03,600.00 2030.03,600.00
             2030.03,600.00 2002.92,564.00 2002.92,564.00
             2002.92,564.00 1981.37,535.00 1981.37,535.00
             1981.37,535.00 1969.55,519.09 1969.55,519.09
             1969.55,519.09 1964.46,513.83 1964.46,513.83
             1964.46,513.83 1943.17,490.00 1943.17,490.00
             1943.17,490.00 1913.17,457.00 1913.17,457.00
             1913.17,457.00 1906.70,449.17 1906.70,449.17
             1906.70,449.17 1877.00,421.91 1877.00,421.91
             1877.00,421.91 1847.18,394.81 1847.18,394.81
             1847.18,394.81 1828.00,377.32 1828.00,377.32
             1828.00,377.32 1794.00,352.10 1794.00,352.10
             1794.00,352.10 1755.04,322.98 1755.04,322.98
             1755.04,322.98 1747.91,317.46 1747.91,317.46
             1747.91,317.46 1727.00,304.94 1727.00,304.94
             1727.00,304.94 1694.00,285.08 1694.00,285.08
             1694.00,285.08 1668.00,269.31 1668.00,269.31
             1668.00,269.31 1658.00,264.68 1658.00,264.68
             1658.00,264.68 1639.00,255.14 1639.00,255.14
             1639.00,255.14 1597.00,234.22 1597.00,234.22
             1597.00,234.22 1582.00,226.87 1582.00,226.87
             1582.00,226.87 1566.00,221.09 1566.00,221.09
             1566.00,221.09 1522.00,205.14 1522.00,205.14
             1522.00,205.14 1483.00,190.91 1483.00,190.91
             1483.00,190.91 1475.00,187.41 1475.00,187.41
             1475.00,187.41 1465.00,185.41 1465.00,185.41
             1465.00,185.41 1425.00,175.34 1425.00,175.34
             1425.00,175.34 1381.00,164.46 1381.00,164.46
             1381.00,164.46 1344.00,158.81 1344.00,158.81
             1344.00,158.81 1337.00,157.19 1337.00,157.19
             1337.00,157.19 1320.00,155.79 1320.00,155.79
             1320.00,155.79 1310.00,153.59 1310.00,153.59
             1310.00,153.59 1281.00,149.81 1281.00,149.81
             1281.00,149.81 1274.00,148.21 1274.00,148.21
             1274.00,148.21 1249.00,147.00 1249.00,147.00
             1249.00,147.00 1233.00,146.00 1233.00,146.00
             1233.00,146.00 1203.00,145.00 1203.00,145.00
             1203.00,145.00 1187.00,144.00 1187.00,144.00
             1187.00,144.00 1164.00,144.00 1164.00,144.00
             1164.00,144.00 1147.00,145.00 1147.00,145.00
             1147.00,145.00 1118.00,146.00 1118.00,146.00
             1118.00,146.00 1102.00,147.00 1102.00,147.00
             1102.00,147.00 1075.00,148.21 1075.00,148.21
             1075.00,148.21 1063.00,150.58 1063.00,150.58
             1063.00,150.58 1039.00,153.76 1039.00,153.76
             1039.00,153.76 1030.00,156.04 1030.00,156.04
             1030.00,156.04 1020.00,156.04 1020.00,156.04
             1020.00,156.04 1006.00,158.81 1006.00,158.81
             1006.00,158.81 981.00,162.31 981.00,162.31
             981.00,162.31 958.00,166.88 958.00,166.88
             958.00,166.88 925.00,175.35 925.00,175.35
             925.00,175.35 885.00,185.41 885.00,185.41
             885.00,185.41 875.00,187.41 875.00,187.41
             875.00,187.41 867.00,190.91 867.00,190.91
             867.00,190.91 849.00,197.09 849.00,197.09
             849.00,197.09 828.00,205.20 828.00,205.20
             828.00,205.20 766.00,227.78 766.00,227.78
             766.00,227.78 714.00,253.74 714.00,253.74
             714.00,253.74 703.00,258.81 703.00,258.81
             703.00,258.81 693.00,264.22 693.00,264.22
             693.00,264.22 683.00,268.86 683.00,268.86
             683.00,268.86 641.00,294.09 641.00,294.09
             641.00,294.09 602.17,317.35 602.17,317.35
             602.17,317.35 594.99,322.97 594.99,322.97
             594.99,322.97 566.91,344.04 566.91,344.04
             566.91,344.04 539.00,364.72 539.00,364.72
             539.00,364.72 522.00,377.32 522.00,377.32
             522.00,377.32 498.58,398.77 498.58,398.77
             498.58,398.77 471.00,423.83 471.00,423.83
             471.00,423.83 453.42,439.46 453.42,439.46
             453.42,439.46 435.91,458.00 435.91,458.00
             435.91,458.00 406.00,490.99 406.00,490.99
             406.00,490.99 386.54,512.91 386.54,512.91
             386.54,512.91 380.59,519.09 380.59,519.09
             380.59,519.09 347.30,564.00 347.30,564.00
             347.30,564.00 319.29,601.00 319.29,601.00
             319.29,601.00 306.68,622.00 306.68,622.00
             306.68,622.00 275.47,673.00 275.47,673.00
             275.47,673.00 260.52,701.00 260.52,701.00
             258.51,705.81 256.15,708.81 260.00,713.00
             264.55,708.28 269.18,703.47 275.00,700.27
             283.24,695.75 290.96,695.89 300.00,696.00
             309.53,696.12 319.01,700.71 325.82,707.30
             325.82,707.30 331.32,713.45 331.32,713.45
             334.55,716.36 335.61,715.57 341.99,722.00
             348.01,728.08 348.39,730.32 352.37,734.91
             352.37,734.91 359.78,742.04 359.78,742.04
             359.78,742.04 371.02,760.00 371.02,760.00
             371.02,760.00 394.96,790.00 394.96,790.00
             394.96,790.00 402.78,802.00 402.78,802.00
             402.78,802.00 421.42,825.54 421.42,825.54
             421.42,825.54 443.21,850.79 443.21,850.79
             447.15,854.72 447.79,853.12 456.00,862.00
             456.00,862.00 467.38,875.00 467.38,875.00
             467.38,875.00 472.59,881.61 472.59,881.61
             475.21,884.30 477.52,884.66 480.67,888.10
             480.67,888.10 485.61,894.72 485.61,894.72
             485.61,894.72 494.72,903.75 494.72,903.75
             498.34,907.05 500.44,906.77 503.89,910.13
             508.11,914.25 507.43,916.81 512.81,922.39
             522.45,932.38 533.39,940.88 544.00,949.75
             547.39,952.59 555.59,960.31 559.00,961.82
             568.22,965.93 568.66,953.52 573.22,948.00
             581.53,937.94 589.73,933.16 603.00,933.00
             608.20,932.94 613.34,932.42 617.82,935.56
             623.08,939.26 623.92,944.62 633.00,947.04
             634.96,947.65 636.90,948.04 638.77,947.04
             645.71,942.97 638.33,929.91 640.89,923.00
             642.60,918.40 648.00,914.81 652.00,912.23
             664.34,904.27 680.26,901.33 694.00,907.38
             699.38,909.74 708.36,917.22 710.04,923.00
             711.57,928.29 707.96,928.68 713.18,937.00
             713.18,937.00 737.91,975.00 737.91,975.00
             737.91,975.00 743.62,985.00 743.62,985.00
             749.30,994.19 754.33,997.91 757.91,1009.00
             757.91,1009.00 762.98,1031.00 762.98,1031.00
             763.85,1033.81 764.53,1037.34 767.22,1038.98
             769.24,1040.20 772.68,1040.00 775.00,1040.00
             775.00,1040.00 790.00,1040.66 790.00,1040.66
             790.00,1040.66 799.00,1040.00 799.00,1040.00
             811.77,1039.85 809.01,1039.12 820.00,1037.32
             820.00,1037.32 835.00,1035.68 835.00,1035.68
             835.00,1035.68 860.00,1029.48 860.00,1029.48
             860.00,1029.48 878.00,1025.41 878.00,1025.41
             878.00,1025.41 901.00,1018.48 901.00,1018.48
             901.00,1018.48 921.00,1013.56 921.00,1013.56
             935.50,1008.49 934.64,1006.60 939.00,1004.85
             942.08,1003.62 944.20,1004.87 955.00,1000.55
             955.00,1000.55 1034.00,967.41 1034.00,967.41
             1034.00,967.41 1040.00,965.15 1040.00,965.15
             1040.00,965.15 1076.00,948.18 1076.00,948.18
             1076.00,948.18 1115.00,929.23 1115.00,929.23
             1119.16,927.00 1124.13,925.86 1127.54,922.61
             1134.76,915.74 1139.21,902.98 1143.23,894.00
             1146.24,887.29 1150.36,877.42 1149.82,870.00
             1149.82,870.00 1147.18,854.00 1147.18,854.00
             1147.20,851.00 1150.78,838.99 1152.05,836.00
             1158.55,820.71 1170.20,808.69 1179.17,795.00
             1182.30,790.22 1188.07,779.36 1189.90,774.00
             1189.90,774.00 1191.75,767.00 1191.75,767.00
             1194.20,759.88 1196.77,757.49 1196.99,749.00
             1197.05,746.48 1197.38,741.44 1195.40,739.63
             1193.54,737.94 1191.05,738.89 1189.00,739.63
             1181.64,742.27 1182.58,743.18 1174.00,742.99
             1155.83,742.57 1149.73,732.48 1137.91,721.92
             1137.91,721.92 1118.23,703.99 1118.23,703.99
             1118.23,703.99 1108.83,693.00 1108.83,693.00
             1108.83,693.00 1079.08,659.09 1079.08,659.09
             1069.30,648.19 1054.70,634.14 1042.00,626.87
             1031.29,620.75 1012.72,612.55 1001.00,608.59
             987.62,604.07 973.72,599.98 961.00,593.73
             950.77,588.70 945.01,584.22 936.00,577.58
             918.27,564.52 904.50,550.86 891.59,533.00
             876.98,512.78 867.30,492.79 857.57,470.00
             857.57,470.00 850.50,453.00 850.50,453.00
             850.50,453.00 840.51,426.00 840.51,426.00
             839.49,422.75 838.58,416.92 835.61,415.03
             830.49,411.76 820.50,421.87 817.00,425.08
             804.84,436.27 790.87,449.72 773.00,447.83
             745.58,444.93 744.19,413.54 750.89,393.00
             752.82,387.05 755.80,381.61 758.50,376.00
             758.50,376.00 771.26,351.00 771.26,351.00
             771.26,351.00 776.76,343.00 776.76,343.00
             776.76,343.00 791.82,319.00 791.82,319.00
             791.82,319.00 798.31,310.00 798.31,310.00
             805.90,298.45 810.14,293.52 818.74,283.00
             821.60,279.51 830.77,269.00 834.04,266.84
             845.34,259.36 870.38,253.06 884.00,253.00
             884.00,253.00 898.00,253.00 898.00,253.00
             906.19,253.01 921.76,256.99 927.00,255.69
             931.02,254.68 932.73,251.68 937.00,249.21
             941.28,246.74 957.16,241.25 962.00,241.04
             969.29,240.72 976.62,243.01 981.96,248.10
             981.96,248.10 988.37,255.44 988.37,255.44
             991.89,258.39 996.97,257.55 1002.94,263.19
             1009.00,268.90 1006.92,273.36 1010.53,279.96
             1013.03,284.53 1016.10,285.07 1018.99,289.09
             1023.80,295.80 1024.13,304.10 1024.00,312.00
             1023.82,322.65 1018.78,323.54 1012.00,330.04
             1008.60,333.30 1004.51,336.81 1005.29,342.00
             1005.71,344.82 1008.82,350.04 1010.14,353.00
             1010.14,353.00 1027.99,386.00 1027.99,386.00
             1042.60,410.96 1057.86,428.40 1078.83,448.13
             1087.30,456.09 1105.58,470.23 1116.00,474.64
             1120.57,476.57 1125.27,476.43 1130.00,477.37
             1142.23,479.80 1154.44,482.85 1167.00,483.00
             1169.97,483.03 1178.12,483.66 1180.00,481.26
             1183.10,477.33 1177.37,470.76 1175.06,468.00
             1170.15,462.10 1165.73,445.74 1166.32,438.00
             1167.05,428.49 1171.98,408.00 1176.95,400.00
             1180.83,393.76 1187.23,388.58 1193.00,384.12
             1206.51,373.68 1225.59,364.21 1243.00,364.00
             1247.24,363.95 1259.70,364.57 1262.90,363.15
             1265.88,361.82 1271.18,354.72 1273.51,351.97
             1277.15,347.66 1284.32,341.58 1289.00,338.35
             1292.51,335.92 1300.35,330.69 1304.00,329.03
             1314.10,324.45 1329.94,322.87 1341.00,323.00
             1346.74,323.07 1356.57,325.33 1362.00,327.24
             1366.19,328.72 1370.40,331.41 1375.00,330.84
             1378.92,330.35 1390.39,320.77 1396.00,317.97
             1407.98,311.98 1422.66,309.15 1436.00,309.00
             1451.90,308.82 1463.76,315.12 1477.00,323.20
             1486.30,328.88 1500.18,339.41 1507.54,347.28
             1507.54,347.28 1513.67,354.72 1513.67,354.72
             1513.67,354.72 1520.56,362.00 1520.56,362.00
             1528.89,371.83 1537.87,387.25 1543.31,399.00
             1555.70,425.78 1558.67,435.68 1565.33,464.00
             1565.33,464.00 1569.71,484.00 1569.71,484.00
             1573.40,507.93 1573.04,531.86 1573.00,556.00
             1573.00,556.00 1571.04,576.00 1571.04,576.00
             1571.04,576.00 1571.04,586.00 1571.04,586.00
             1571.04,586.00 1569.96,593.00 1569.96,593.00
             1569.96,593.00 1569.96,602.00 1569.96,602.00
             1569.96,602.00 1568.09,617.00 1568.09,617.00
             1568.09,617.00 1566.83,632.00 1566.83,632.00
             1566.83,632.00 1555.17,667.00 1555.17,667.00
             1555.17,667.00 1550.41,684.00 1550.41,684.00
             1550.41,684.00 1544.60,704.00 1544.60,704.00
             1542.68,711.30 1540.09,733.31 1540.00,741.00
             1539.93,747.36 1539.47,763.68 1540.93,769.00
             1540.93,769.00 1550.43,792.00 1550.43,792.00
             1554.31,804.88 1557.43,817.78 1563.32,830.00
             1563.32,830.00 1568.65,839.00 1568.65,839.00
             1579.30,858.12 1592.96,875.06 1609.72,889.15
             1618.13,896.23 1623.62,901.03 1633.00,907.09
             1635.81,908.91 1640.07,912.53 1643.00,913.44
             1649.37,915.41 1652.71,909.97 1658.00,907.84
             1663.87,905.47 1678.51,903.29 1685.00,903.04
             1691.94,902.77 1705.53,904.90 1712.00,907.46
             1718.98,910.23 1720.72,913.52 1726.00,913.85
             1732.96,914.30 1749.58,907.95 1755.00,910.07
             1757.46,911.03 1761.71,915.15 1764.09,917.01
             1771.13,922.51 1780.07,927.19 1783.05,936.00
             1781.63,931.81 1787.58,954.20 1786.70,950.00
             1787.25,952.60 1786.65,955.41 1788.02,957.82
             1790.40,961.98 1798.54,964.34 1801.40,968.21
             1803.64,971.24 1802.38,973.67 1804.44,978.00
             1806.70,982.76 1809.66,984.26 1812.56,992.00
             1816.30,1001.95 1815.28,1002.64 1816.17,1012.00
             1816.17,1012.00 1816.82,1018.00 1816.82,1018.00
             1816.82,1018.00 1815.84,1030.00 1815.84,1030.00
             1815.84,1030.00 1815.84,1041.00 1815.84,1041.00
             1814.53,1047.52 1807.13,1058.53 1802.48,1063.18
             1796.72,1068.95 1792.00,1069.16 1786.22,1079.00
             1781.86,1086.42 1780.51,1094.64 1779.14,1103.00
             1778.13,1109.20 1778.36,1114.39 1774.45,1119.71
             1770.69,1124.85 1767.98,1125.60 1764.17,1129.21
             1764.17,1129.21 1758.91,1134.53 1758.91,1134.53
             1745.14,1145.78 1719.94,1156.29 1702.00,1156.39
             1695.51,1156.43 1694.24,1152.52 1689.00,1152.43
             1682.95,1152.32 1678.25,1155.81 1673.00,1156.45
             1666.06,1157.28 1650.89,1154.67 1644.00,1152.57
             1641.02,1151.66 1627.44,1145.12 1625.04,1143.36
             1625.04,1143.36 1618.83,1137.41 1618.83,1137.41
             1616.23,1135.21 1613.97,1134.77 1611.81,1131.87
             1609.69,1129.01 1608.09,1123.41 1606.69,1120.00
             1606.69,1120.00 1592.59,1085.01 1592.59,1085.01
             1589.75,1080.03 1585.89,1078.66 1582.70,1074.00
             1582.70,1074.00 1571.48,1052.00 1571.48,1052.00
             1569.90,1048.92 1565.79,1043.78 1565.52,1041.00
             1565.34,1039.25 1569.68,1021.45 1570.55,1019.00
             1572.49,1013.50 1575.39,1009.90 1578.05,1005.00
             1580.77,1000.00 1590.07,982.64 1593.30,979.34
             1596.55,976.00 1602.24,974.54 1605.72,970.79
             1608.33,968.00 1609.01,964.59 1609.87,961.00
             1610.30,959.21 1611.14,956.17 1610.39,954.43
             1609.53,952.44 1606.85,951.83 1605.00,951.14
             1605.00,951.14 1590.00,945.24 1590.00,945.24
             1576.96,938.88 1554.43,925.98 1545.47,915.00
             1515.93,878.84 1496.28,831.82 1484.08,787.00
             1484.08,787.00 1480.32,768.00 1480.32,768.00
             1480.32,768.00 1476.28,750.00 1476.28,750.00
             1476.28,750.00 1474.56,736.00 1474.56,736.00
             1474.56,736.00 1472.08,726.00 1472.08,726.00
             1472.08,726.00 1472.08,719.00 1472.08,719.00
             1472.08,719.00 1470.00,693.00 1470.00,693.00
             1470.00,693.00 1469.00,678.00 1469.00,678.00
             1469.00,678.00 1469.00,641.00 1469.00,641.00
             1469.00,641.00 1470.00,628.00 1470.00,628.00
             1470.00,628.00 1471.58,605.00 1471.58,605.00
             1471.95,602.19 1473.04,594.97 1469.69,593.65
             1466.62,592.45 1460.48,596.50 1458.00,598.22
             1448.07,605.09 1439.42,616.51 1432.01,626.00
             1432.01,626.00 1417.54,645.00 1417.54,645.00
             1408.19,656.42 1391.38,673.04 1378.00,678.97
             1366.01,684.29 1354.71,682.97 1342.00,683.00
             1326.90,683.03 1328.92,692.01 1318.83,698.25
             1324.30,694.87 1299.11,708.67 1304.91,705.87
             1302.00,707.27 1299.58,706.74 1297.51,708.60
             1295.41,710.47 1292.14,720.86 1291.12,724.00
             1291.12,724.00 1283.24,745.00 1283.24,745.00
             1283.24,745.00 1279.80,756.00 1279.80,756.00
             1262.22,800.91 1243.36,860.62 1244.00,909.00
             1244.14,918.90 1253.59,935.69 1257.92,945.00
             1274.83,981.42 1306.85,1021.94 1337.00,1048.21
             1337.00,1048.21 1345.00,1055.68 1345.00,1055.68
             1345.00,1055.68 1370.00,1075.04 1370.00,1075.04
             1370.00,1075.04 1381.00,1083.68 1381.00,1083.68
             1418.06,1109.56 1458.20,1130.51 1499.00,1149.78
             1499.00,1149.78 1528.00,1163.69 1528.00,1163.69
             1528.00,1163.69 1547.00,1171.02 1547.00,1171.02
             1547.00,1171.02 1608.00,1195.38 1608.00,1195.38
             1608.00,1195.38 1623.00,1199.28 1623.00,1199.28
             1636.05,1202.77 1649.40,1205.98 1663.00,1206.00
             1663.00,1206.00 1689.00,1206.00 1689.00,1206.00
             1689.00,1206.00 1711.00,1207.00 1711.00,1207.00
             1711.00,1207.00 1723.00,1206.02 1723.00,1206.02
             1723.00,1206.02 1739.00,1206.02 1739.00,1206.02
             1739.00,1206.02 1755.00,1203.99 1755.00,1203.99
             1755.00,1203.99 1763.00,1203.99 1763.00,1203.99
             1763.00,1203.99 1770.00,1202.32 1770.00,1202.32
             1770.00,1202.32 1797.00,1198.57 1797.00,1198.57
             1797.00,1198.57 1808.00,1196.21 1808.00,1196.21
             1808.00,1196.21 1816.00,1195.70 1816.00,1195.70
             1816.00,1195.70 1826.00,1193.04 1826.00,1193.04
             1826.00,1193.04 1848.00,1187.89 1848.00,1187.89
             1848.00,1187.89 1867.00,1183.52 1867.00,1183.52
             1867.00,1183.52 1916.00,1168.74 1916.00,1168.74
             1916.00,1168.74 1931.00,1164.46 1931.00,1164.46
             1931.00,1164.46 1951.00,1156.94 1951.00,1156.94
             1969.02,1150.46 1986.86,1144.23 2004.00,1135.57
             2040.35,1117.20 2060.58,1109.86 2100.00,1100.26
             2100.00,1100.26 2115.00,1096.62 2115.00,1096.62
             2115.00,1096.62 2140.00,1094.60 2140.00,1094.60
             2142.98,1095.03 2152.20,1098.33 2154.96,1099.76
             2154.96,1099.76 2168.83,1112.39 2168.83,1112.39
             2176.37,1118.86 2182.38,1122.66 2188.59,1131.00
             2195.18,1139.85 2200.98,1158.83 2201.00,1170.00
             2201.01,1177.39 2200.19,1192.61 2202.00,1199.00
             2202.00,1199.00 2204.00,1199.00 2204.00,1199.00
             2205.62,1193.29 2205.00,1186.92 2205.00,1181.00 Z
           M 941.66,259.96
           C 943.56,266.28 954.59,266.97 960.00,267.00
             965.99,267.03 980.15,267.24 981.08,258.99
             982.08,250.01 963.91,248.75 958.00,249.29
             953.03,250.05 939.29,252.09 941.66,259.96 Z
           M 997.55,315.00
           C 999.07,319.26 1002.50,325.33 1007.91,324.34
             1011.66,323.65 1014.36,319.28 1015.60,316.00
             1018.75,307.67 1017.48,290.20 1005.99,289.61
             996.24,292.88 994.48,306.41 997.55,315.00 Z
           M 238.00,749.00
           C 238.00,749.00 227.11,772.00 227.11,772.00
             227.11,772.00 223.09,780.00 223.09,780.00
             223.09,780.00 209.09,819.00 209.09,819.00
             209.09,819.00 190.60,869.00 190.60,869.00
             190.60,869.00 189.25,876.00 189.25,876.00
             189.25,876.00 183.37,898.00 183.37,898.00
             183.37,898.00 179.25,916.00 179.25,916.00
             179.25,916.00 163.09,983.00 163.09,983.00
             163.09,983.00 157.58,1022.00 157.58,1022.00
             157.58,1022.00 155.37,1032.00 155.37,1032.00
             155.37,1032.00 150.00,1069.00 150.00,1069.00
             150.00,1069.00 149.00,1105.00 149.00,1105.00
             148.89,1113.69 147.02,1112.08 147.00,1123.00
             147.00,1123.00 146.00,1150.00 146.00,1150.00
             146.00,1150.00 145.00,1166.00 145.00,1166.00
             145.00,1166.00 145.00,1190.00 145.00,1190.00
             145.00,1190.00 146.00,1205.00 146.00,1205.00
             146.00,1205.00 147.00,1235.00 147.00,1235.00
             147.02,1246.36 148.95,1242.88 149.00,1253.00
             149.00,1253.00 150.00,1288.00 150.00,1288.00
             150.00,1288.00 157.41,1334.00 157.41,1334.00
             157.41,1334.00 162.93,1373.00 162.93,1373.00
             162.93,1373.00 170.66,1409.00 170.66,1409.00
             170.66,1409.00 173.34,1418.00 173.34,1418.00
             173.34,1418.00 186.72,1471.00 186.72,1471.00
             186.72,1471.00 191.35,1490.00 191.35,1490.00
             191.35,1490.00 196.31,1503.00 196.31,1503.00
             196.31,1503.00 209.46,1539.00 209.46,1539.00
             209.46,1539.00 218.95,1565.00 218.95,1565.00
             218.95,1565.00 223.44,1578.00 223.44,1578.00
             223.44,1578.00 228.68,1588.00 228.68,1588.00
             228.68,1588.00 247.74,1628.00 247.74,1628.00
             247.74,1628.00 266.89,1668.00 266.89,1668.00
             266.89,1668.00 271.17,1677.00 271.17,1677.00
             271.17,1677.00 298.08,1721.00 298.08,1721.00
             298.08,1721.00 319.40,1756.00 319.40,1756.00
             319.40,1756.00 328.52,1768.00 328.52,1768.00
             328.52,1768.00 348.08,1794.00 348.08,1794.00
             348.08,1794.00 380.43,1837.49 380.43,1837.49
             380.43,1837.49 407.83,1868.00 407.83,1868.00
             420.27,1881.77 443.04,1908.52 456.00,1919.59
             456.00,1919.59 481.04,1942.82 481.04,1942.82
             481.04,1942.82 487.83,1948.32 487.83,1948.32
             492.37,1952.52 490.65,1951.90 496.96,1956.86
             503.24,1961.80 504.18,1966.31 513.21,1967.00
             513.21,1967.00 513.21,1939.00 513.21,1939.00
             514.87,1933.13 521.36,1928.10 520.26,1924.30
             519.72,1922.43 514.16,1919.94 512.17,1918.36
             507.64,1914.75 500.80,1905.03 501.49,1899.00
             502.59,1889.41 514.49,1873.85 521.04,1867.00
             527.44,1860.30 532.86,1857.79 533.00,1848.00
             533.00,1848.00 533.00,1816.00 533.00,1816.00
             533.01,1808.56 533.12,1807.74 539.00,1802.75
             540.77,1801.26 542.97,1799.38 545.00,1798.30
             549.76,1795.76 556.78,1795.71 562.00,1794.48
             562.00,1794.48 570.00,1791.92 570.00,1791.92
             578.75,1789.59 588.98,1787.01 598.00,1787.00
             598.00,1787.00 618.00,1788.00 618.00,1788.00
             618.00,1788.00 652.00,1789.96 652.00,1789.96
             652.00,1789.96 662.00,1789.96 662.00,1789.96
             662.00,1789.96 675.00,1791.00 675.00,1791.00
             686.70,1791.06 708.95,1799.32 720.00,1804.14
             725.46,1806.52 734.21,1809.39 739.00,1812.63
             752.20,1821.56 759.11,1833.50 769.18,1845.00
             769.18,1845.00 797.70,1875.00 797.70,1875.00
             804.20,1882.60 806.46,1887.13 811.67,1895.00
             811.67,1895.00 829.93,1922.00 829.93,1922.00
             831.87,1924.90 835.14,1930.49 838.91,1930.99
             841.83,1931.37 845.69,1926.57 847.53,1924.58
             847.53,1924.58 866.90,1904.00 866.90,1904.00
             866.90,1904.00 873.21,1896.68 873.21,1896.68
             875.90,1894.24 877.39,1893.95 880.14,1890.79
             880.14,1890.79 913.44,1846.00 913.44,1846.00
             918.76,1838.27 919.43,1834.18 921.54,1831.00
             921.54,1831.00 937.80,1811.00 937.80,1811.00
             939.64,1808.72 943.37,1804.61 944.24,1802.00
             945.79,1797.38 942.38,1794.85 939.00,1792.52
             939.00,1792.52 918.00,1779.23 918.00,1779.23
             918.00,1779.23 895.72,1756.58 895.72,1756.58
             895.72,1756.58 888.00,1749.39 888.00,1749.39
             882.50,1745.06 883.39,1747.38 876.00,1740.00
             876.00,1740.00 845.16,1704.00 845.16,1704.00
             845.16,1704.00 836.98,1693.00 836.98,1693.00
             819.51,1669.40 803.31,1645.19 788.27,1620.00
             788.27,1620.00 768.75,1586.00 768.75,1586.00
             765.89,1580.85 763.98,1579.41 761.46,1573.00
             753.78,1553.44 751.11,1542.21 746.88,1522.00
             746.88,1522.00 744.68,1514.00 744.68,1514.00
             744.68,1514.00 742.29,1499.00 742.29,1499.00
             742.29,1499.00 740.71,1478.00 740.71,1478.00
             740.71,1478.00 736.29,1457.00 736.29,1457.00
             734.67,1444.74 735.00,1432.34 735.00,1420.00
             733.31,1420.30 732.22,1420.21 730.92,1421.60
             730.92,1421.60 721.87,1440.00 721.87,1440.00
             714.16,1452.46 704.05,1460.50 689.00,1461.83
             679.72,1462.65 668.77,1457.41 664.45,1449.00
             660.69,1441.70 662.53,1432.28 655.96,1433.68
             655.96,1433.68 637.00,1440.08 637.00,1440.08
             615.40,1445.77 592.51,1448.26 572.00,1437.74
             560.69,1431.94 552.66,1424.72 545.86,1414.00
             543.59,1410.42 538.88,1398.32 536.73,1397.02
             534.93,1395.97 523.07,1396.97 520.00,1397.02
             508.03,1397.15 509.22,1401.30 496.00,1400.99
             488.86,1400.82 484.61,1399.03 478.00,1397.28
             478.00,1397.28 464.00,1393.08 464.00,1393.08
             447.67,1386.38 429.52,1373.26 417.00,1360.99
             404.30,1348.54 402.29,1342.96 399.56,1326.00
             399.56,1326.00 398.04,1316.00 398.04,1316.00
             397.67,1307.54 398.72,1304.94 400.20,1297.00
             400.68,1294.39 401.54,1290.86 399.40,1288.74
             396.97,1286.33 393.06,1287.80 386.00,1284.29
             386.00,1284.29 375.00,1277.32 375.00,1277.32
             375.00,1277.32 345.00,1263.65 345.00,1263.65
             337.53,1259.21 326.14,1247.71 321.78,1240.00
             321.78,1240.00 317.39,1230.00 317.39,1230.00
             317.39,1230.00 301.85,1208.00 301.85,1208.00
             297.06,1199.85 291.88,1177.54 292.00,1168.00
             292.09,1160.94 294.93,1152.82 298.89,1147.00
             301.48,1143.19 306.53,1137.97 303.97,1133.09
             302.74,1130.73 295.77,1125.79 293.09,1122.99
             287.11,1116.74 276.46,1104.18 271.89,1097.00
             261.18,1080.17 252.75,1061.17 247.30,1042.00
             247.30,1042.00 243.32,1024.00 243.32,1024.00
             241.65,1016.69 239.90,1009.53 239.04,1002.00
             239.04,1002.00 239.04,993.00 239.04,993.00
             239.04,993.00 238.00,969.00 238.00,969.00
             238.12,960.28 243.61,946.27 247.01,938.00
             248.04,935.50 250.74,928.27 252.51,926.74
             254.89,924.67 259.02,925.00 262.00,925.00
             262.00,925.00 266.00,925.00 266.00,925.00
             269.64,924.99 275.62,925.67 274.30,920.02
             273.83,918.00 269.19,911.27 267.80,909.00
             267.80,909.00 255.10,889.00 255.10,889.00
             255.10,889.00 249.01,881.00 249.01,881.00
             246.85,877.36 246.74,873.02 245.72,869.00
             245.72,869.00 239.46,843.00 239.46,843.00
             239.46,843.00 237.96,823.00 237.96,823.00
             237.96,823.00 237.00,811.00 237.00,811.00
             237.00,811.00 238.04,777.00 238.04,777.00
             238.39,768.88 241.99,756.08 240.00,749.00
             240.00,749.00 238.00,749.00 238.00,749.00 Z
           M 2201.00,1209.00
           C 2199.30,1214.81 2199.37,1218.74 2196.66,1225.00
             2196.66,1225.00 2191.03,1235.00 2191.03,1235.00
             2191.03,1235.00 2186.68,1244.00 2186.68,1244.00
             2174.68,1263.39 2154.94,1279.11 2136.00,1291.29
             2136.00,1291.29 2103.00,1309.12 2103.00,1309.12
             2099.82,1310.80 2090.67,1314.74 2089.01,1317.53
             2087.50,1320.07 2089.12,1322.65 2090.63,1324.72
             2094.92,1330.60 2097.71,1332.98 2101.35,1340.00
             2114.50,1365.41 2114.32,1376.14 2114.00,1404.00
             2113.86,1415.81 2110.11,1433.75 2106.33,1445.00
             2104.83,1449.46 2102.54,1456.40 2099.61,1459.96
             2099.61,1459.96 2076.17,1477.89 2076.17,1477.89
             2072.00,1481.46 2071.18,1483.37 2066.00,1486.76
             2066.00,1486.76 2054.32,1492.92 2054.32,1492.92
             2051.44,1494.97 2050.56,1498.00 2046.96,1499.40
             2046.96,1499.40 2034.00,1501.50 2034.00,1501.50
             2034.00,1501.50 1995.00,1507.71 1995.00,1507.71
             1984.81,1509.05 1974.92,1509.96 1965.00,1513.00
             1967.41,1520.09 1974.59,1526.22 1978.54,1533.00
             1978.54,1533.00 1982.32,1541.00 1982.32,1541.00
             1989.04,1555.24 1993.18,1564.93 1993.00,1581.00
             1992.87,1592.04 1988.30,1608.97 1983.77,1619.00
             1977.92,1631.96 1980.19,1632.39 1969.41,1644.72
             1964.79,1650.00 1957.75,1656.15 1952.00,1660.20
             1943.70,1666.05 1930.90,1673.33 1921.00,1675.67
             1921.00,1675.67 1910.00,1677.51 1910.00,1677.51
             1901.79,1679.25 1891.37,1680.90 1883.00,1681.00
             1883.00,1681.00 1854.00,1678.83 1854.00,1678.83
             1854.00,1678.83 1846.00,1677.18 1846.00,1677.18
             1846.00,1677.18 1830.00,1675.68 1830.00,1675.68
             1830.00,1675.68 1800.00,1669.37 1800.00,1669.37
             1800.00,1669.37 1786.00,1667.00 1786.00,1667.00
             1784.88,1671.26 1786.06,1680.60 1786.00,1686.00
             1785.69,1712.55 1762.67,1739.23 1741.00,1752.20
             1727.11,1760.51 1711.88,1762.71 1696.00,1763.00
             1691.98,1763.08 1689.07,1763.03 1689.80,1768.02
             1690.27,1771.18 1691.27,1777.22 1693.43,1779.47
             1698.36,1784.60 1704.34,1782.16 1709.00,1783.43
             1712.86,1784.48 1716.22,1788.11 1718.83,1791.00
             1721.26,1793.69 1725.47,1798.58 1726.49,1802.00
             1726.49,1802.00 1728.52,1824.00 1728.52,1824.00
             1728.52,1824.00 1737.87,1851.00 1737.87,1851.00
             1738.52,1856.84 1736.48,1860.96 1733.89,1866.00
             1727.83,1877.80 1722.98,1883.30 1709.00,1882.99
             1700.81,1882.80 1696.57,1880.54 1689.00,1879.43
             1689.00,1879.43 1660.00,1875.29 1660.00,1875.29
             1660.00,1875.29 1647.00,1873.50 1647.00,1873.50
             1647.00,1873.50 1626.00,1867.90 1626.00,1867.90
             1626.00,1867.90 1616.00,1866.56 1616.00,1866.56
             1601.14,1864.20 1607.09,1863.21 1589.00,1863.00
             1589.00,1863.00 1570.00,1862.00 1570.00,1862.00
             1570.00,1862.00 1542.00,1864.19 1542.00,1864.19
             1542.00,1864.19 1531.00,1866.57 1531.00,1866.57
             1525.14,1867.43 1525.94,1866.65 1519.00,1868.37
             1519.00,1868.37 1477.00,1881.10 1477.00,1881.10
             1477.00,1881.10 1467.00,1883.24 1467.00,1883.24
             1467.00,1883.24 1453.00,1888.00 1453.00,1888.00
             1443.01,1892.23 1434.14,1898.58 1425.00,1904.29
             1425.00,1904.29 1415.18,1909.18 1415.18,1909.18
             1415.18,1909.18 1400.96,1922.13 1400.96,1922.13
             1400.96,1922.13 1378.04,1937.95 1378.04,1937.95
             1373.34,1941.07 1370.42,1944.32 1365.00,1946.46
             1365.00,1946.46 1345.00,1953.61 1345.00,1953.61
             1345.00,1953.61 1332.00,1954.28 1332.00,1954.28
             1332.00,1954.28 1325.00,1955.79 1325.00,1955.79
             1325.00,1955.79 1307.00,1957.00 1307.00,1957.00
             1307.00,1957.00 1272.00,1957.00 1272.00,1957.00
             1264.36,1956.90 1265.34,1955.88 1259.00,1954.34
             1259.00,1954.34 1228.00,1946.65 1228.00,1946.65
             1228.00,1946.65 1201.00,1941.23 1201.00,1941.23
             1201.00,1941.23 1161.00,1922.31 1161.00,1922.31
             1161.00,1922.31 1122.00,1905.67 1122.00,1905.67
             1122.00,1905.67 1088.00,1888.34 1088.00,1888.34
             1088.00,1888.34 1079.00,1883.85 1079.00,1883.85
             1079.00,1883.85 1024.00,1852.80 1024.00,1852.80
             1019.46,1850.04 1006.98,1841.32 1002.00,1842.69
             999.61,1843.34 995.16,1847.16 993.17,1848.88
             993.17,1848.88 975.96,1864.93 975.96,1864.93
             953.01,1887.08 934.24,1912.44 915.37,1938.00
             915.37,1938.00 886.91,1980.00 886.91,1980.00
             883.70,1984.99 874.32,1998.01 872.75,2003.00
             869.96,2011.88 874.74,2021.48 876.64,2030.00
             878.05,2036.34 878.32,2042.97 881.07,2049.00
             881.07,2049.00 898.77,2074.00 898.77,2074.00
             898.77,2074.00 909.78,2088.00 909.78,2088.00
             909.78,2088.00 921.39,2106.00 921.39,2106.00
             927.01,2113.18 933.86,2119.16 938.76,2127.00
             940.58,2129.92 944.76,2139.72 944.37,2143.00
             943.89,2147.01 933.95,2160.09 931.14,2164.00
             923.86,2174.13 922.63,2172.62 920.42,2175.37
             919.41,2176.62 918.84,2177.97 919.88,2179.42
             921.28,2181.36 933.02,2183.58 936.00,2184.51
             936.00,2184.51 950.00,2187.75 950.00,2187.75
             969.96,2192.61 969.19,2193.61 991.00,2196.05
             991.00,2196.05 1073.00,2207.96 1073.00,2207.96
             1073.00,2207.96 1082.00,2207.96 1082.00,2207.96
             1082.00,2207.96 1094.00,2209.10 1094.00,2209.10
             1094.00,2209.10 1106.00,2209.10 1106.00,2209.10
             1112.45,2210.10 1109.34,2210.98 1119.00,2211.00
             1119.00,2211.00 1148.00,2212.00 1148.00,2212.00
             1148.00,2212.00 1164.00,2213.00 1164.00,2213.00
             1164.00,2213.00 1187.00,2213.00 1187.00,2213.00
             1187.00,2213.00 1202.00,2212.00 1202.00,2212.00
             1202.00,2212.00 1231.00,2211.00 1231.00,2211.00
             1240.66,2210.98 1237.55,2210.10 1244.00,2209.10
             1244.00,2209.10 1258.00,2209.10 1258.00,2209.10
             1258.00,2209.10 1268.00,2208.09 1268.00,2208.09
             1268.00,2208.09 1321.00,2201.81 1321.00,2201.81
             1321.00,2201.81 1328.00,2200.19 1328.00,2200.19
             1328.00,2200.19 1365.00,2195.28 1365.00,2195.28
             1365.00,2195.28 1378.00,2193.63 1378.00,2193.63
             1378.00,2193.63 1400.00,2187.75 1400.00,2187.75
             1400.00,2187.75 1408.00,2186.32 1408.00,2186.32
             1408.00,2186.32 1438.00,2178.29 1438.00,2178.29
             1438.00,2178.29 1475.00,2169.04 1475.00,2169.04
             1475.00,2169.04 1496.00,2161.23 1496.00,2161.23
             1496.00,2161.23 1510.00,2156.46 1510.00,2156.46
             1510.00,2156.46 1532.00,2148.09 1532.00,2148.09
             1532.00,2148.09 1557.00,2139.01 1557.00,2139.01
             1557.00,2139.01 1581.00,2130.43 1581.00,2130.43
             1581.00,2130.43 1626.00,2108.31 1626.00,2108.31
             1626.00,2108.31 1658.00,2092.26 1658.00,2092.26
             1658.00,2092.26 1673.00,2084.77 1673.00,2084.77
             1673.00,2084.77 1700.00,2068.23 1700.00,2068.23
             1700.00,2068.23 1732.00,2048.89 1732.00,2048.89
             1732.00,2048.89 1745.00,2041.26 1745.00,2041.26
             1745.00,2041.26 1775.00,2019.09 1775.00,2019.09
             1775.00,2019.09 1802.00,1998.88 1802.00,1998.88
             1802.00,1998.88 1829.00,1978.56 1829.00,1978.56
             1829.00,1978.56 1837.99,1970.21 1837.99,1970.21
             1837.99,1970.21 1856.97,1953.79 1856.97,1953.79
             1856.97,1953.79 1863.17,1947.44 1863.17,1947.44
             1863.17,1947.44 1891.00,1922.17 1891.00,1922.17
             1891.00,1922.17 1908.74,1905.72 1908.74,1905.72
             1908.74,1905.72 1914.13,1899.00 1914.13,1899.00
             1914.13,1899.00 1934.17,1877.00 1934.17,1877.00
             1934.17,1877.00 1969.72,1837.49 1969.72,1837.49
             1969.72,1837.49 2002.89,1793.00 2002.89,1793.00
             2002.89,1793.00 2021.49,1768.00 2021.49,1768.00
             2021.49,1768.00 2031.29,1755.00 2031.29,1755.00
             2031.29,1755.00 2063.46,1702.00 2063.46,1702.00
             2063.46,1702.00 2079.49,1676.00 2079.49,1676.00
             2079.49,1676.00 2090.05,1655.00 2090.05,1655.00
             2090.05,1655.00 2092.64,1648.00 2092.64,1648.00
             2092.64,1648.00 2099.49,1635.00 2099.49,1635.00
             2099.49,1635.00 2103.26,1626.00 2103.26,1626.00
             2103.26,1626.00 2121.12,1589.00 2121.12,1589.00
             2121.12,1589.00 2126.13,1579.00 2126.13,1579.00
             2126.13,1579.00 2132.09,1562.00 2132.09,1562.00
             2132.09,1562.00 2141.59,1536.00 2141.59,1536.00
             2141.59,1536.00 2148.94,1517.00 2148.94,1517.00
             2148.94,1517.00 2155.09,1499.00 2155.09,1499.00
             2155.09,1499.00 2158.56,1490.00 2158.56,1490.00
             2158.56,1490.00 2163.03,1471.00 2163.03,1471.00
             2163.03,1471.00 2170.24,1445.00 2170.24,1445.00
             2170.24,1445.00 2171.60,1437.00 2171.60,1437.00
             2171.60,1437.00 2177.71,1415.00 2177.71,1415.00
             2177.71,1415.00 2182.37,1394.00 2182.37,1394.00
             2182.37,1394.00 2185.49,1383.00 2185.49,1383.00
             2185.49,1383.00 2187.28,1370.00 2187.28,1370.00
             2187.28,1370.00 2191.42,1342.00 2191.42,1342.00
             2191.42,1342.00 2193.86,1330.00 2193.86,1330.00
             2193.86,1330.00 2197.42,1305.00 2197.42,1305.00
             2197.42,1305.00 2199.63,1295.00 2199.63,1295.00
             2200.94,1288.39 2200.99,1281.71 2201.00,1275.00
             2201.00,1275.00 2202.00,1260.00 2202.00,1260.00
             2202.00,1260.00 2203.00,1230.00 2203.00,1230.00
             2203.01,1222.93 2204.97,1215.94 2203.00,1209.00
             2203.00,1209.00 2201.00,1209.00 2201.00,1209.00 Z
           M 608.00,1938.89
           C 603.44,1940.40 589.88,1946.57 586.00,1949.11
             586.00,1949.11 578.00,1955.11 578.00,1955.11
             574.38,1957.33 572.77,1956.64 569.00,1958.85
             563.35,1962.17 560.12,1967.03 556.18,1972.00
             552.68,1976.43 549.28,1981.67 545.00,1985.26
             542.98,1986.95 540.00,1988.79 540.74,1991.92
             541.30,1994.25 544.19,1996.08 546.00,1997.42
             546.00,1997.42 559.00,2007.35 559.00,2007.35
             572.20,2017.51 601.70,2039.84 615.00,2047.08
             615.00,2047.08 628.00,2055.26 628.00,2055.26
             628.00,2055.26 650.00,2068.09 650.00,2068.09
             650.00,2068.09 679.00,2085.83 679.00,2085.83
             679.00,2085.83 694.00,2093.26 694.00,2093.26
             694.00,2093.26 728.00,2110.11 728.00,2110.11
             728.00,2110.11 773.00,2131.99 773.00,2131.99
             773.00,2131.99 790.00,2137.94 790.00,2137.94
             790.00,2137.94 817.00,2147.80 817.00,2147.80
             817.00,2147.80 838.00,2155.78 838.00,2155.78
             838.00,2155.78 852.00,2160.44 852.00,2160.44
             852.00,2160.44 868.00,2166.61 868.00,2166.61
             871.97,2167.91 884.26,2172.50 887.85,2171.65
             891.39,2170.80 891.14,2166.87 889.71,2164.30
             889.71,2164.30 875.72,2151.57 875.72,2151.57
             867.56,2143.54 858.21,2130.72 851.95,2121.00
             851.95,2121.00 846.89,2112.01 846.89,2112.01
             846.89,2112.01 833.78,2096.00 833.78,2096.00
             833.78,2096.00 824.64,2078.00 824.64,2078.00
             824.64,2078.00 816.22,2060.00 816.22,2060.00
             816.22,2060.00 802.55,2032.00 802.55,2032.00
             802.55,2032.00 789.65,2005.00 789.65,2005.00
             789.65,2005.00 775.70,1986.00 775.70,1986.00
             769.97,1979.26 768.57,1979.68 762.00,1975.45
             748.87,1967.01 747.89,1967.08 734.00,1961.05
             734.00,1961.05 705.00,1948.20 705.00,1948.20
             705.00,1948.20 688.00,1942.46 688.00,1942.46
             688.00,1942.46 678.00,1938.57 678.00,1938.57
             664.74,1934.57 649.82,1933.00 636.00,1934.28
             626.40,1935.66 617.48,1935.75 608.00,1938.89 Z" />
</svg>
